<svg xmlns="http://www.w3.org/2000/svg" xmlns:xlink="http://www.w3.org/1999/xlink" width="500" zoomAndPan="magnify" viewBox="0 0 375 374.999991" height="500" preserveAspectRatio="xMidYMid meet" version="1.0"><defs><clipPath id="d8766f10ee"><path d="M 69 35.089844 L 320 35.089844 L 320 329 L 69 329 Z M 69 35.089844 " clip-rule="nonzero"/></clipPath></defs><g clip-path="url(#d8766f10ee)"><path fill="#ffffff" d="M 319.320312 83.507812 C 317.742188 55.621094 296.164062 35.546875 268.871094 35.457031 C 255.882812 35.417969 242.890625 35.449219 229.898438 35.449219 C 212 35.449219 194.101562 35.5625 171.195312 35.367188 L 171.195312 110.710938 C 158.628906 111.34375 146.546875 114.226562 134.867188 119.132812 C 74.640625 144.441406 54.332031 213.554688 79.859375 267.457031 C 105.027344 320.601562 166.613281 339.625 216.679688 321.699219 C 229.71875 317.035156 241.222656 309.863281 251.882812 300.226562 C 247.503906 295.269531 243.492188 290.726562 239.488281 286.1875 C 235.5625 281.726562 235.582031 281.75 230.910156 285.28125 C 204.273438 305.460938 175.019531 309.042969 144.609375 296.457031 C 115.175781 284.28125 98.71875 260.960938 95.144531 229.425781 C 91.980469 201.460938 100.117188 176.878906 121.015625 157.34375 C 135.289062 143.992188 152.285156 137.058594 171.1875 135.578125 L 171.1875 248.996094 L 195.492188 248.996094 L 195.492188 135.160156 C 219.757812 135.0625 244.019531 135.1875 268.285156 135.167969 C 270.824219 135.167969 273.40625 135.25 275.898438 134.859375 C 303.042969 130.554688 320.699219 107.558594 319.320312 83.507812 Z M 293.789062 91.484375 C 290.386719 103.480469 280.503906 110.636719 267.074219 110.652344 C 243.214844 110.667969 219.359375 110.660156 195.5 110.613281 L 195.5 60.285156 C 220.285156 60.234375 242.882812 60.269531 265.476562 60.292969 C 268.15625 60.292969 270.859375 60.367188 273.503906 60.699219 C 287.472656 62.449219 297.636719 77.921875 293.789062 91.484375 Z M 293.789062 91.484375 " fill-opacity="1" fill-rule="nonzero"/></g></svg>