<svg xmlns="http://www.w3.org/2000/svg" xmlns:xlink="http://www.w3.org/1999/xlink" width="500" zoomAndPan="magnify" viewBox="0 0 375 374.999991" height="500" preserveAspectRatio="xMidYMid meet" version="1.0"><defs><clipPath id="5c4366af5f"><path d="M 45 4.515625 L 346 4.515625 L 346 357 L 45 357 Z M 45 4.515625 " clip-rule="nonzero"/></clipPath></defs><g clip-path="url(#5c4366af5f)"><path fill="#ffffff" d="M 345.761719 62.644531 C 343.867188 29.164062 317.960938 5.0625 285.191406 4.957031 C 269.59375 4.90625 254 4.945312 238.402344 4.945312 C 216.910156 4.945312 195.421875 5.082031 167.921875 4.847656 L 167.921875 95.304688 C 152.832031 96.066406 138.332031 99.527344 124.308594 105.417969 C 52 135.800781 27.617188 218.78125 58.265625 283.492188 C 88.480469 347.300781 162.421875 370.136719 222.53125 348.617188 C 238.1875 343.019531 251.996094 334.410156 264.796875 322.839844 C 259.539062 316.886719 254.722656 311.433594 249.914062 305.980469 C 245.203125 300.625 245.222656 300.65625 239.613281 304.894531 C 207.636719 329.121094 172.515625 333.421875 136.003906 318.3125 C 100.667969 303.695312 80.90625 275.695312 76.617188 237.835938 C 72.816406 204.257812 82.589844 174.746094 107.675781 151.289062 C 124.816406 135.265625 145.21875 126.9375 167.914062 125.160156 L 167.914062 261.328125 L 197.09375 261.328125 L 197.09375 124.660156 C 226.226562 124.542969 255.355469 124.691406 284.488281 124.671875 C 287.539062 124.671875 290.636719 124.769531 293.625 124.300781 C 326.21875 119.128906 347.414062 91.523438 345.761719 62.644531 Z M 315.105469 72.222656 C 311.023438 86.625 299.15625 95.214844 283.03125 95.234375 C 254.390625 95.253906 225.746094 95.246094 197.101562 95.1875 L 197.101562 34.761719 C 226.859375 34.703125 253.988281 34.742188 281.117188 34.773438 C 284.332031 34.773438 287.578125 34.859375 290.753906 35.261719 C 307.523438 37.363281 319.730469 55.941406 315.105469 72.222656 Z M 315.105469 72.222656 " fill-opacity="1" fill-rule="nonzero"/></g></svg>