<svg xmlns="http://www.w3.org/2000/svg" xmlns:xlink="http://www.w3.org/1999/xlink" width="832" zoomAndPan="magnify" viewBox="0 0 624 373.499994" height="498" preserveAspectRatio="xMidYMid meet" version="1.0"><path fill="#000000" d="M 473.214844 59.246094 C 471.285156 25.121094 444.886719 0.558594 411.5 0.449219 C 395.605469 0.398438 379.714844 0.4375 363.820312 0.4375 C 341.925781 0.4375 320.027344 0.578125 292.007812 0.339844 L 292.007812 92.53125 C 276.632812 93.308594 261.855469 96.835938 247.566406 102.84375 C 173.890625 133.808594 149.046875 218.382812 180.273438 284.34375 C 211.0625 349.375 286.402344 372.652344 347.648438 350.71875 C 363.601562 345.011719 377.671875 336.238281 390.71875 324.441406 C 385.359375 318.378906 380.449219 312.820312 375.550781 307.261719 C 370.753906 301.804688 370.773438 301.832031 365.054688 306.15625 C 332.476562 330.847656 296.6875 335.230469 259.484375 319.832031 C 223.480469 304.929688 203.34375 276.394531 198.972656 237.808594 C 195.097656 203.582031 205.058594 173.5 230.617188 149.597656 C 248.082031 133.261719 268.875 124.773438 291.996094 122.960938 L 291.996094 261.75 L 321.730469 261.75 L 321.730469 122.453125 C 351.414062 122.335938 381.097656 122.484375 410.78125 122.464844 C 413.886719 122.464844 417.046875 122.5625 420.09375 122.085938 C 453.300781 116.816406 474.898438 88.679688 473.214844 59.246094 Z M 441.980469 69.007812 C 437.816406 83.6875 425.726562 92.445312 409.296875 92.464844 C 380.113281 92.484375 350.925781 92.472656 321.742188 92.414062 L 321.742188 30.828125 C 352.0625 30.769531 379.703125 30.808594 407.347656 30.835938 C 410.621094 30.835938 413.929688 30.925781 417.164062 31.335938 C 434.25 33.476562 446.6875 52.414062 441.980469 69.007812 Z M 441.980469 69.007812 " fill-opacity="1" fill-rule="nonzero"/></svg>