<svg xmlns="http://www.w3.org/2000/svg" xmlns:xlink="http://www.w3.org/1999/xlink" width="832" zoomAndPan="magnify" viewBox="0 0 624 623.999998" height="832" preserveAspectRatio="xMidYMid meet" version="1.0"><defs><clipPath id="0e517c62f1"><path d="M 30 11.25 L 543 11.25 L 543 612 L 30 612 Z M 30 11.25 " clip-rule="nonzero"/></clipPath></defs><g clip-path="url(#0e517c62f1)"><path fill="#000000" d="M 542.5 110.363281 C 539.265625 53.273438 495.089844 12.183594 439.214844 12 C 412.621094 11.917969 386.023438 11.984375 359.429688 11.984375 C 322.785156 11.984375 286.140625 12.21875 239.246094 11.816406 L 239.246094 166.050781 C 213.515625 167.351562 188.789062 173.25 164.875 183.296875 C 41.578125 235.101562 0 376.589844 52.257812 486.929688 C 103.785156 595.722656 229.863281 634.664062 332.367188 597.972656 C 359.0625 588.425781 382.609375 573.746094 404.4375 554.015625 C 395.472656 543.867188 387.257812 534.570312 379.058594 525.273438 C 371.027344 516.140625 371.058594 516.191406 361.496094 523.421875 C 306.96875 564.730469 247.078125 572.0625 184.820312 546.300781 C 124.5625 521.375 90.871094 473.632812 83.554688 409.082031 C 77.070312 351.828125 93.734375 301.503906 136.511719 261.511719 C 165.742188 234.1875 200.535156 219.988281 239.230469 216.957031 L 239.230469 449.140625 L 288.988281 449.140625 L 288.988281 216.105469 C 338.664062 215.90625 388.339844 216.15625 438.015625 216.125 C 443.214844 216.125 448.5 216.289062 453.597656 215.488281 C 509.171875 206.675781 545.316406 159.601562 542.5 110.363281 Z M 490.226562 126.691406 C 483.257812 151.253906 463.027344 165.902344 435.535156 165.933594 C 386.691406 165.96875 337.847656 165.949219 289.003906 165.851562 L 289.003906 62.824219 C 339.746094 62.722656 386.007812 62.789062 432.265625 62.839844 C 437.75 62.839844 443.28125 62.988281 448.699219 63.671875 C 477.292969 67.253906 498.105469 98.933594 490.226562 126.691406 Z M 490.226562 126.691406 " fill-opacity="1" fill-rule="nonzero"/></g></svg>