<svg xmlns="http://www.w3.org/2000/svg" xmlns:xlink="http://www.w3.org/1999/xlink" width="1880" zoomAndPan="magnify" viewBox="0 0 1410 379.499984" height="506" preserveAspectRatio="xMidYMid meet" version="1.0"><defs><g/><clipPath id="56042251b1"><path d="M 371 6.316406 L 684 6.316406 L 684 371 L 371 371 Z M 371 6.316406 " clip-rule="nonzero"/></clipPath></defs><g fill="#000000" fill-opacity="1"><g transform="translate(551.272883, 217.462317)"><g><path d="M 2.703125 -37.234375 L 16.296875 -37.234375 C 20.078125 -37.234375 23.140625 -36.253906 25.484375 -34.296875 C 27.835938 -32.335938 29.015625 -29.492188 29.015625 -25.765625 C 29.015625 -22.035156 27.828125 -19.109375 25.453125 -16.984375 C 23.078125 -14.867188 20.023438 -13.8125 16.296875 -13.8125 L 11.1875 -13.8125 L 11.1875 0 L 2.703125 0 Z M 11.1875 -20.578125 L 13.578125 -20.578125 C 15.472656 -20.578125 17.03125 -20.957031 18.25 -21.71875 C 19.46875 -22.488281 20.078125 -23.75 20.078125 -25.5 C 20.078125 -27.269531 19.46875 -28.535156 18.25 -29.296875 C 17.03125 -30.066406 15.472656 -30.453125 13.578125 -30.453125 L 11.1875 -30.453125 Z M 11.1875 -20.578125 "/></g></g></g><g fill="#000000" fill-opacity="1"><g transform="translate(581.314864, 217.462317)"><g><path d="M 21.609375 -37.234375 L 36.640625 0 L 27.53125 0 L 24.78125 -7.453125 L 10.609375 -7.453125 L 7.859375 0 L -1.265625 0 L 13.765625 -37.234375 Z M 21.890625 -14.890625 L 17.734375 -25.71875 L 17.640625 -25.71875 L 13.5 -14.890625 Z M 21.890625 -14.890625 "/></g></g></g><g fill="#000000" fill-opacity="1"><g transform="translate(616.67959, 217.462317)"><g><path d="M 2.703125 -37.234375 L 16.015625 -37.234375 C 19.597656 -37.234375 22.515625 -36.273438 24.765625 -34.359375 C 27.023438 -32.453125 28.15625 -29.722656 28.15625 -26.171875 C 28.15625 -23.429688 27.46875 -21.132812 26.09375 -19.28125 C 24.726562 -17.4375 22.875 -16.140625 20.53125 -15.390625 L 33.34375 0 L 22.5625 0 L 11.1875 -14.703125 L 11.1875 0 L 2.703125 0 Z M 11.1875 -20.71875 L 12.1875 -20.71875 C 12.96875 -20.71875 13.628906 -20.726562 14.171875 -20.75 C 14.710938 -20.78125 15.328125 -20.882812 16.015625 -21.0625 C 16.710938 -21.25 17.269531 -21.507812 17.6875 -21.84375 C 18.113281 -22.175781 18.472656 -22.65625 18.765625 -23.28125 C 19.066406 -23.914062 19.21875 -24.679688 19.21875 -25.578125 C 19.21875 -26.484375 19.066406 -27.25 18.765625 -27.875 C 18.472656 -28.507812 18.113281 -28.992188 17.6875 -29.328125 C 17.269531 -29.660156 16.710938 -29.914062 16.015625 -30.09375 C 15.328125 -30.28125 14.710938 -30.382812 14.171875 -30.40625 C 13.628906 -30.4375 12.96875 -30.453125 12.1875 -30.453125 L 11.1875 -30.453125 Z M 11.1875 -20.71875 "/></g></g></g><g fill="#000000" fill-opacity="1"><g transform="translate(648.976978, 217.462317)"><g><path d="M 21.609375 -37.234375 L 36.640625 0 L 27.53125 0 L 24.78125 -7.453125 L 10.609375 -7.453125 L 7.859375 0 L -1.265625 0 L 13.765625 -37.234375 Z M 21.890625 -14.890625 L 17.734375 -25.71875 L 17.640625 -25.71875 L 13.5 -14.890625 Z M 21.890625 -14.890625 "/></g></g></g><g fill="#000000" fill-opacity="1"><g transform="translate(684.341705, 217.462317)"><g><path d="M 2.703125 -37.234375 L 13.5 -37.234375 C 18.664062 -37.234375 23.082031 -35.460938 26.75 -31.921875 C 30.425781 -28.390625 32.265625 -23.960938 32.265625 -18.640625 C 32.265625 -13.285156 30.4375 -8.835938 26.78125 -5.296875 C 23.125 -1.765625 18.695312 0 13.5 0 L 2.703125 0 Z M 11.1875 -7.578125 L 12.5 -7.578125 C 15.59375 -7.578125 18.125 -8.625 20.09375 -10.71875 C 22.070312 -12.8125 23.078125 -15.4375 23.109375 -18.59375 C 23.109375 -21.75 22.117188 -24.378906 20.140625 -26.484375 C 18.171875 -28.585938 15.625 -29.640625 12.5 -29.640625 L 11.1875 -29.640625 Z M 11.1875 -7.578125 "/></g></g></g><g fill="#000000" fill-opacity="1"><g transform="translate(717.63148, 217.462317)"><g><path d="M 11.1875 -37.234375 L 11.1875 0 L 2.703125 0 L 2.703125 -37.234375 Z M 11.1875 -37.234375 "/></g></g></g><g fill="#000000" fill-opacity="1"><g transform="translate(731.524767, 217.462317)"><g><path d="M 16.421875 -37.90625 C 18.441406 -37.90625 20.410156 -37.609375 22.328125 -37.015625 C 24.253906 -36.429688 25.6875 -35.851562 26.625 -35.28125 L 27.984375 -34.390625 L 24.546875 -27.609375 C 24.273438 -27.796875 23.898438 -28.03125 23.421875 -28.3125 C 22.941406 -28.601562 22.039062 -28.988281 20.71875 -29.46875 C 19.394531 -29.945312 18.160156 -30.1875 17.015625 -30.1875 C 15.597656 -30.1875 14.503906 -29.882812 13.734375 -29.28125 C 12.972656 -28.6875 12.59375 -27.875 12.59375 -26.84375 C 12.59375 -26.332031 12.769531 -25.859375 13.125 -25.421875 C 13.488281 -24.992188 14.109375 -24.53125 14.984375 -24.03125 C 15.859375 -23.53125 16.625 -23.128906 17.28125 -22.828125 C 17.945312 -22.523438 18.96875 -22.078125 20.34375 -21.484375 C 22.757812 -20.453125 24.816406 -19.054688 26.515625 -17.296875 C 28.210938 -15.546875 29.0625 -13.554688 29.0625 -11.328125 C 29.0625 -9.191406 28.675781 -7.328125 27.90625 -5.734375 C 27.144531 -4.140625 26.09375 -2.890625 24.75 -1.984375 C 23.414062 -1.078125 21.9375 -0.410156 20.3125 0.015625 C 18.6875 0.453125 16.925781 0.671875 15.03125 0.671875 C 13.40625 0.671875 11.804688 0.503906 10.234375 0.171875 C 8.671875 -0.148438 7.363281 -0.5625 6.3125 -1.0625 C 5.257812 -1.5625 4.3125 -2.050781 3.46875 -2.53125 C 2.632812 -3.007812 2.019531 -3.414062 1.625 -3.75 L 1.03125 -4.234375 L 5.28125 -11.375 C 5.644531 -11.070312 6.140625 -10.6875 6.765625 -10.21875 C 7.398438 -9.75 8.519531 -9.125 10.125 -8.34375 C 11.738281 -7.5625 13.160156 -7.171875 14.390625 -7.171875 C 17.972656 -7.171875 19.765625 -8.390625 19.765625 -10.828125 C 19.765625 -11.335938 19.632812 -11.8125 19.375 -12.25 C 19.125 -12.6875 18.675781 -13.125 18.03125 -13.5625 C 17.382812 -14 16.8125 -14.34375 16.3125 -14.59375 C 15.8125 -14.851562 15 -15.242188 13.875 -15.765625 C 12.75 -16.296875 11.914062 -16.695312 11.375 -16.96875 C 9.113281 -18.082031 7.363281 -19.472656 6.125 -21.140625 C 4.894531 -22.804688 4.28125 -24.601562 4.28125 -26.53125 C 4.28125 -29.875 5.515625 -32.601562 7.984375 -34.71875 C 10.453125 -36.84375 13.265625 -37.90625 16.421875 -37.90625 Z M 16.421875 -37.90625 "/></g></g></g><g fill="#000000" fill-opacity="1"><g transform="translate(761.837413, 217.462317)"><g><path d="M 24 -37.234375 L 24 -29.78125 L 11.1875 -29.78125 L 11.1875 -22.375 L 23.46875 -22.375 L 23.46875 -14.9375 L 11.1875 -14.9375 L 11.1875 -7.453125 L 24 -7.453125 L 24 0 L 2.703125 0 L 2.703125 -37.234375 Z M 24 -37.234375 "/></g></g></g><g fill="#000000" fill-opacity="1"><g transform="translate(800.314586, 217.462317)"><g><path d="M 22.515625 -7.671875 C 23.804688 -7.671875 25.0625 -7.863281 26.28125 -8.25 C 27.5 -8.644531 28.394531 -9.023438 28.96875 -9.390625 L 29.828125 -9.96875 L 33.4375 -2.75 C 33.3125 -2.664062 33.144531 -2.546875 32.9375 -2.390625 C 32.726562 -2.242188 32.238281 -1.96875 31.46875 -1.5625 C 30.707031 -1.15625 29.890625 -0.800781 29.015625 -0.5 C 28.140625 -0.195312 26.992188 0.0703125 25.578125 0.3125 C 24.171875 0.550781 22.710938 0.671875 21.203125 0.671875 C 17.742188 0.671875 14.460938 -0.175781 11.359375 -1.875 C 8.265625 -3.570312 5.769531 -5.910156 3.875 -8.890625 C 1.976562 -11.867188 1.03125 -15.085938 1.03125 -18.546875 C 1.03125 -21.160156 1.585938 -23.671875 2.703125 -26.078125 C 3.816406 -28.484375 5.296875 -30.546875 7.140625 -32.265625 C 8.992188 -33.984375 11.15625 -35.351562 13.625 -36.375 C 16.09375 -37.394531 18.617188 -37.90625 21.203125 -37.90625 C 23.609375 -37.90625 25.828125 -37.617188 27.859375 -37.046875 C 29.890625 -36.472656 31.328125 -35.898438 32.171875 -35.328125 L 33.4375 -34.46875 L 29.828125 -27.25 C 29.617188 -27.4375 29.300781 -27.65625 28.875 -27.90625 C 28.457031 -28.164062 27.613281 -28.503906 26.34375 -28.921875 C 25.082031 -29.347656 23.804688 -29.5625 22.515625 -29.5625 C 20.472656 -29.5625 18.640625 -29.226562 17.015625 -28.5625 C 15.390625 -27.90625 14.101562 -27.035156 13.15625 -25.953125 C 12.207031 -24.867188 11.484375 -23.703125 10.984375 -22.453125 C 10.492188 -21.203125 10.25 -19.929688 10.25 -18.640625 C 10.25 -15.804688 11.304688 -13.269531 13.421875 -11.03125 C 15.546875 -8.789062 18.578125 -7.671875 22.515625 -7.671875 Z M 22.515625 -7.671875 "/></g></g></g><g fill="#000000" fill-opacity="1"><g transform="translate(834.280976, 217.462317)"><g><path d="M 1.03125 -18.640625 C 1.03125 -24.023438 2.863281 -28.582031 6.53125 -32.3125 C 10.207031 -36.039062 14.632812 -37.90625 19.8125 -37.90625 C 25.007812 -37.90625 29.425781 -36.046875 33.0625 -32.328125 C 36.707031 -28.617188 38.53125 -24.054688 38.53125 -18.640625 C 38.53125 -13.191406 36.738281 -8.609375 33.15625 -4.890625 C 29.582031 -1.179688 25.132812 0.671875 19.8125 0.671875 C 14.363281 0.671875 9.867188 -1.164062 6.328125 -4.84375 C 2.796875 -8.53125 1.03125 -13.128906 1.03125 -18.640625 Z M 10.203125 -18.640625 C 10.203125 -16.679688 10.5 -14.894531 11.09375 -13.28125 C 11.695312 -11.675781 12.75 -10.316406 14.25 -9.203125 C 15.757812 -8.085938 17.613281 -7.53125 19.8125 -7.53125 C 22.96875 -7.53125 25.347656 -8.613281 26.953125 -10.78125 C 28.566406 -12.945312 29.375 -15.566406 29.375 -18.640625 C 29.375 -21.671875 28.550781 -24.273438 26.90625 -26.453125 C 25.269531 -28.640625 22.90625 -29.734375 19.8125 -29.734375 C 16.738281 -29.734375 14.367188 -28.640625 12.703125 -26.453125 C 11.035156 -24.273438 10.203125 -21.671875 10.203125 -18.640625 Z M 10.203125 -18.640625 "/></g></g></g><g fill="#000000" fill-opacity="1"><g transform="translate(873.840779, 217.462317)"><g><path d="M 14.34375 0 L -1.265625 -37.234375 L 8.296875 -37.234375 L 17.6875 -12.765625 L 27.078125 -37.234375 L 36.640625 -37.234375 L 21.03125 0 Z M 14.34375 0 "/></g></g></g><g fill="#000000" fill-opacity="1"><g transform="translate(909.205506, 217.462317)"><g><path d="M 24 -37.234375 L 24 -29.78125 L 11.1875 -29.78125 L 11.1875 -22.375 L 23.46875 -22.375 L 23.46875 -14.9375 L 11.1875 -14.9375 L 11.1875 -7.453125 L 24 -7.453125 L 24 0 L 2.703125 0 L 2.703125 -37.234375 Z M 24 -37.234375 "/></g></g></g><g fill="#000000" fill-opacity="1"><g transform="translate(553.158934, 263.777911)"><g><path d="M 19.378906 -10.925781 C 19.378906 -12.5 19.058594 -13.949219 18.480469 -15.296875 C 17.902344 -16.648438 17.097656 -17.804688 16.101562 -18.769531 C 15.074219 -19.734375 13.882812 -20.472656 12.535156 -21.019531 C 11.152344 -21.566406 9.671875 -21.855469 8.132812 -21.855469 L 2.410156 -21.855469 L 2.410156 0 L 8.132812 0 C 9.671875 0 11.152344 -0.257812 12.535156 -0.804688 C 13.882812 -1.351562 15.074219 -2.121094 16.101562 -3.085938 C 17.097656 -4.050781 17.902344 -5.175781 18.480469 -6.523438 C 19.058594 -7.875 19.378906 -9.320312 19.378906 -10.925781 Z M 17.195312 -10.925781 C 17.195312 -8.421875 16.292969 -6.332031 14.558594 -4.691406 C 12.824219 -3.054688 10.703125 -2.25 8.195312 -2.25 L 4.660156 -2.25 L 4.660156 -19.605469 L 8.195312 -19.605469 C 10.703125 -19.605469 12.824219 -18.769531 14.558594 -17.160156 C 16.292969 -15.492188 17.195312 -13.402344 17.195312 -10.925781 Z M 17.195312 -10.925781 "/></g></g></g><g fill="#000000" fill-opacity="1"><g transform="translate(582.395471, 263.777911)"><g><path d="M 4.691406 -19.027344 C 4.402344 -19.28125 4.050781 -19.445312 3.664062 -19.445312 C 3.277344 -19.445312 2.925781 -19.28125 2.667969 -19.027344 C 2.378906 -18.738281 2.25 -18.382812 2.25 -17.996094 C 2.25 -17.613281 2.378906 -17.257812 2.667969 -17 C 2.925781 -16.710938 3.277344 -16.582031 3.664062 -16.582031 C 4.050781 -16.582031 4.402344 -16.710938 4.691406 -17 C 4.949219 -17.257812 5.109375 -17.613281 5.109375 -17.996094 C 5.109375 -18.382812 4.949219 -18.738281 4.691406 -19.027344 Z M 4.820312 0 L 4.820312 -14.140625 L 2.570312 -14.140625 L 2.570312 0 Z M 4.820312 0 "/></g></g></g><g fill="#000000" fill-opacity="1"><g transform="translate(598.173251, 263.777911)"><g><path d="M 4.433594 -1.992188 C 3.890625 -2.378906 3.472656 -3.019531 3.246094 -3.953125 L 0.867188 -3.953125 C 1.351562 -1.027344 3.214844 0.417969 6.492188 0.417969 C 7.261719 0.417969 7.96875 0.355469 8.644531 0.160156 C 9.320312 -0.03125 9.898438 -0.289062 10.445312 -0.644531 C 11.539062 -1.382812 12.082031 -2.507812 12.082031 -4.015625 C 12.082031 -5.558594 11.375 -6.652344 9.898438 -7.359375 C 9.289062 -7.648438 8.613281 -7.875 7.875 -8.035156 C 7.167969 -8.195312 6.492188 -8.386719 5.882812 -8.582031 C 5.238281 -8.773438 4.722656 -9.03125 4.304688 -9.320312 C 3.890625 -9.609375 3.664062 -10.058594 3.664062 -10.703125 C 3.664062 -11.34375 3.921875 -11.828125 4.433594 -12.117188 C 4.949219 -12.4375 5.558594 -12.597656 6.234375 -12.597656 C 6.941406 -12.597656 7.550781 -12.4375 8.035156 -12.179688 C 8.515625 -11.921875 8.902344 -11.410156 9.128906 -10.636719 L 11.539062 -10.636719 C 11.25 -12.050781 10.636719 -13.046875 9.738281 -13.59375 C 8.804688 -14.171875 7.679688 -14.460938 6.300781 -14.460938 C 4.949219 -14.460938 3.761719 -14.078125 2.765625 -13.371094 C 1.800781 -12.628906 1.285156 -11.570312 1.285156 -10.15625 C 1.285156 -9.480469 1.476562 -8.871094 1.832031 -8.355469 C 2.21875 -7.808594 2.765625 -7.390625 3.472656 -7.070312 C 4.113281 -6.78125 4.789062 -6.554688 5.496094 -6.363281 C 6.203125 -6.203125 6.878906 -6.011719 7.519531 -5.816406 C 8.964844 -5.335938 9.707031 -4.628906 9.707031 -3.726562 C 9.707031 -2.183594 8.675781 -1.445312 6.621094 -1.445312 C 5.753906 -1.445312 5.011719 -1.605469 4.433594 -1.992188 Z M 4.433594 -1.992188 "/></g></g></g><g fill="#000000" fill-opacity="1"><g transform="translate(619.507997, 263.777911)"><g><path d="M 15.617188 -9.0625 C 15.167969 -10.636719 14.300781 -11.921875 13.046875 -12.917969 C 11.730469 -13.914062 10.285156 -14.429688 8.675781 -14.429688 C 6.652344 -14.429688 4.917969 -13.691406 3.535156 -12.246094 C 2.121094 -10.796875 1.445312 -9.0625 1.445312 -7.070312 C 1.445312 -5.046875 2.121094 -3.34375 3.535156 -1.863281 C 4.179688 -1.1875 4.917969 -0.644531 5.816406 -0.257812 C 6.683594 0.128906 7.585938 0.320312 8.484375 0.320312 C 9.382812 0.320312 10.1875 0.226562 10.894531 -0.03125 C 13.144531 -0.835938 14.6875 -2.347656 15.492188 -4.628906 L 12.953125 -4.628906 C 12.5 -3.824219 11.921875 -3.183594 11.152344 -2.730469 C 10.378906 -2.25 9.578125 -2.023438 8.675781 -2.023438 C 7.296875 -2.023438 6.136719 -2.507812 5.175781 -3.503906 C 4.210938 -4.5 3.761719 -5.6875 3.761719 -7.070312 C 3.761719 -8.386719 4.210938 -9.578125 5.175781 -10.574219 C 5.625 -11.023438 6.136719 -11.410156 6.75 -11.667969 C 7.328125 -11.921875 8.066406 -12.082031 8.902344 -12.082031 C 9.738281 -12.082031 10.542969 -11.792969 11.375 -11.25 C 12.179688 -10.667969 12.789062 -9.960938 13.175781 -9.0625 Z M 15.617188 -9.0625 "/></g></g></g><g fill="#000000" fill-opacity="1"><g transform="translate(644.665137, 263.777911)"><g><path d="M 13.980469 -7.132812 C 13.980469 -5.71875 13.464844 -4.53125 12.46875 -3.535156 C 11.441406 -2.507812 10.253906 -2.023438 8.839844 -2.023438 C 7.425781 -2.023438 6.203125 -2.507812 5.207031 -3.535156 C 4.179688 -4.53125 3.695312 -5.71875 3.695312 -7.132812 C 3.695312 -8.546875 4.179688 -9.738281 5.207031 -10.765625 C 6.203125 -11.761719 7.425781 -12.277344 8.839844 -12.277344 C 10.253906 -12.277344 11.441406 -11.761719 12.46875 -10.765625 C 13.464844 -9.738281 13.980469 -8.546875 13.980469 -7.132812 Z M 16.230469 -7.132812 C 16.230469 -9.160156 15.492188 -10.894531 14.042969 -12.339844 C 12.597656 -13.789062 10.863281 -14.527344 8.839844 -14.527344 C 6.78125 -14.527344 5.046875 -13.789062 3.597656 -12.339844 C 2.152344 -10.894531 1.445312 -9.160156 1.445312 -7.132812 C 1.445312 -5.078125 2.152344 -3.34375 3.597656 -1.929688 C 5.046875 -0.480469 6.8125 0.226562 8.839844 0.226562 C 10.832031 0.226562 12.597656 -0.480469 14.042969 -1.929688 C 15.492188 -3.34375 16.230469 -5.078125 16.230469 -7.132812 Z M 16.230469 -7.132812 "/></g></g></g><g fill="#000000" fill-opacity="1"><g transform="translate(670.753805, 263.777911)"><g><path d="M 6.84375 1.351562 L 13.335938 -14.140625 L 10.894531 -14.140625 L 6.84375 -3.632812 L 2.765625 -14.140625 L 0.320312 -14.140625 Z M 6.84375 1.351562 "/></g></g></g><g fill="#000000" fill-opacity="1"><g transform="translate(692.827313, 263.777911)"><g><path d="M 16.230469 -7.390625 C 16.230469 -9.320312 15.457031 -10.992188 13.980469 -12.4375 C 12.535156 -13.820312 10.796875 -14.527344 8.839844 -14.527344 C 6.78125 -14.527344 5.046875 -13.789062 3.597656 -12.339844 C 2.152344 -10.894531 1.445312 -9.160156 1.445312 -7.132812 C 1.445312 -5.078125 2.152344 -3.34375 3.597656 -1.929688 C 4.273438 -1.253906 5.046875 -0.738281 5.945312 -0.355469 C 6.84375 0.03125 7.90625 0.226562 9.160156 0.226562 C 10.414062 0.226562 11.632812 -0.160156 12.855469 -0.933594 C 14.078125 -1.703125 14.976562 -2.796875 15.585938 -4.144531 L 13.015625 -4.144531 C 12.5 -3.472656 11.890625 -2.957031 11.152344 -2.570312 C 10.414062 -2.183594 9.640625 -2.023438 8.839844 -2.023438 C 7.617188 -2.023438 6.523438 -2.410156 5.558594 -3.214844 C 4.597656 -3.984375 3.984375 -4.980469 3.792969 -6.203125 L 16.230469 -6.203125 Z M 13.851562 -8.132812 L 3.824219 -8.132812 C 3.953125 -8.710938 4.179688 -9.253906 4.5 -9.769531 C 5.527344 -11.441406 6.972656 -12.277344 8.839844 -12.277344 C 10.027344 -12.277344 11.085938 -11.890625 12.019531 -11.121094 C 12.984375 -10.316406 13.5625 -9.320312 13.851562 -8.132812 Z M 13.851562 -8.132812 "/></g></g></g><g fill="#000000" fill-opacity="1"><g transform="translate(718.755369, 263.777911)"><g><path d="M 9.671875 -11.214844 L 9.671875 -14.140625 C 9.222656 -14.332031 8.742188 -14.429688 8.257812 -14.429688 C 6.652344 -14.429688 5.496094 -13.53125 4.757812 -11.792969 L 4.660156 -11.214844 L 4.660156 -14.140625 L 2.410156 -14.140625 L 2.410156 0 L 4.660156 0 L 4.660156 -7.070312 C 4.660156 -8.226562 4.917969 -9.253906 5.464844 -10.1875 C 5.71875 -10.667969 6.074219 -11.085938 6.492188 -11.410156 C 6.910156 -11.730469 7.425781 -11.921875 8.003906 -11.921875 C 8.582031 -11.921875 9.128906 -11.667969 9.671875 -11.214844 Z M 9.671875 -11.214844 "/></g></g></g><g fill="#000000" fill-opacity="1"><g transform="translate(737.167087, 263.777911)"><g/></g></g><g fill="#000000" fill-opacity="1"><g transform="translate(754.26182, 263.777911)"><g><path d="M 10.863281 -10.285156 L 19.121094 -21.855469 L 16.261719 -21.855469 L 9.738281 -12.5 L 3.214844 -21.855469 L 0.320312 -21.855469 L 8.613281 -10.253906 L 8.613281 0 L 10.863281 0 Z M 10.863281 -10.285156 "/></g></g></g><g fill="#000000" fill-opacity="1"><g transform="translate(782.117164, 263.777911)"><g><path d="M 13.980469 -7.132812 C 13.980469 -5.71875 13.464844 -4.53125 12.46875 -3.535156 C 11.441406 -2.507812 10.253906 -2.023438 8.839844 -2.023438 C 7.425781 -2.023438 6.203125 -2.507812 5.207031 -3.535156 C 4.179688 -4.53125 3.695312 -5.71875 3.695312 -7.132812 C 3.695312 -8.546875 4.179688 -9.738281 5.207031 -10.765625 C 6.203125 -11.761719 7.425781 -12.277344 8.839844 -12.277344 C 10.253906 -12.277344 11.441406 -11.761719 12.46875 -10.765625 C 13.464844 -9.738281 13.980469 -8.546875 13.980469 -7.132812 Z M 16.230469 -7.132812 C 16.230469 -9.160156 15.492188 -10.894531 14.042969 -12.339844 C 12.597656 -13.789062 10.863281 -14.527344 8.839844 -14.527344 C 6.78125 -14.527344 5.046875 -13.789062 3.597656 -12.339844 C 2.152344 -10.894531 1.445312 -9.160156 1.445312 -7.132812 C 1.445312 -5.078125 2.152344 -3.34375 3.597656 -1.929688 C 5.046875 -0.480469 6.8125 0.226562 8.839844 0.226562 C 10.832031 0.226562 12.597656 -0.480469 14.042969 -1.929688 C 15.492188 -3.34375 16.230469 -5.078125 16.230469 -7.132812 Z M 16.230469 -7.132812 "/></g></g></g><g fill="#000000" fill-opacity="1"><g transform="translate(808.205846, 263.777911)"><g><path d="M 12.179688 -2.410156 L 12.179688 0 L 14.429688 0 L 14.429688 -14.140625 L 12.179688 -14.140625 L 12.179688 -8.226562 C 12.179688 -6.234375 11.792969 -4.722656 11.054688 -3.597656 C 10.347656 -2.507812 9.09375 -1.960938 7.359375 -1.960938 C 6.394531 -1.960938 5.6875 -2.28125 5.269531 -2.925781 C 4.851562 -3.566406 4.660156 -4.371094 4.660156 -5.304688 L 4.660156 -14.140625 L 2.410156 -14.140625 L 2.410156 -5.304688 C 2.410156 -3.664062 2.828125 -2.3125 3.726562 -1.253906 C 4.628906 -0.226562 5.847656 0.289062 7.457031 0.289062 C 9.546875 0.289062 11.121094 -0.609375 12.179688 -2.410156 Z M 12.179688 -2.410156 "/></g></g></g><g fill="#000000" fill-opacity="1"><g transform="translate(832.977558, 263.777911)"><g><path d="M 9.671875 -11.214844 L 9.671875 -14.140625 C 9.222656 -14.332031 8.742188 -14.429688 8.257812 -14.429688 C 6.652344 -14.429688 5.496094 -13.53125 4.757812 -11.792969 L 4.660156 -11.214844 L 4.660156 -14.140625 L 2.410156 -14.140625 L 2.410156 0 L 4.660156 0 L 4.660156 -7.070312 C 4.660156 -8.226562 4.917969 -9.253906 5.464844 -10.1875 C 5.71875 -10.667969 6.074219 -11.085938 6.492188 -11.410156 C 6.910156 -11.730469 7.425781 -11.921875 8.003906 -11.921875 C 8.582031 -11.921875 9.128906 -11.667969 9.671875 -11.214844 Z M 9.671875 -11.214844 "/></g></g></g><g fill="#000000" fill-opacity="1"><g transform="translate(851.389276, 263.777911)"><g/></g></g><g fill="#000000" fill-opacity="1"><g transform="translate(868.484009, 263.777911)"><g><path d="M 4.660156 -10.832031 L 4.660156 -19.699219 L 9.738281 -19.699219 C 11.054688 -19.699219 12.117188 -19.28125 12.917969 -18.480469 C 13.691406 -17.644531 14.109375 -16.617188 14.109375 -15.328125 C 14.109375 -14.011719 13.691406 -12.953125 12.855469 -12.082031 C 12.019531 -11.25 10.992188 -10.832031 9.738281 -10.832031 Z M 16.359375 -15.265625 C 16.359375 -17.195312 15.652344 -18.769531 14.300781 -20.023438 C 12.953125 -21.242188 11.34375 -21.855469 9.417969 -21.855469 L 2.410156 -21.855469 L 2.410156 0 L 4.660156 0 L 4.660156 -8.644531 L 9.417969 -8.644531 C 11.34375 -8.644531 12.984375 -9.253906 14.300781 -10.476562 C 15.652344 -11.761719 16.359375 -13.335938 16.359375 -15.265625 Z M 16.359375 -15.265625 "/></g></g></g><g fill="#000000" fill-opacity="1"><g transform="translate(893.89814, 263.777911)"><g><path d="M 13.660156 -7.070312 C 13.660156 -5.6875 13.175781 -4.46875 12.210938 -3.472656 C 11.25 -2.441406 10.058594 -1.929688 8.675781 -1.929688 C 7.261719 -1.929688 6.074219 -2.441406 5.109375 -3.472656 C 4.144531 -4.46875 3.695312 -5.6875 3.695312 -7.070312 C 3.695312 -8.421875 4.144531 -9.640625 5.109375 -10.667969 C 6.074219 -11.699219 7.261719 -12.210938 8.675781 -12.210938 C 10.058594 -12.210938 11.25 -11.699219 12.210938 -10.667969 C 13.175781 -9.640625 13.660156 -8.421875 13.660156 -7.070312 Z M 15.910156 0 L 15.910156 -14.140625 L 13.660156 -14.140625 L 13.660156 -11.699219 C 13.53125 -11.890625 13.371094 -12.050781 13.242188 -12.210938 C 11.890625 -13.691406 10.253906 -14.460938 8.324219 -14.460938 C 6.363281 -14.460938 4.722656 -13.691406 3.375 -12.210938 C 2.089844 -10.734375 1.445312 -9.03125 1.445312 -7.070312 C 1.445312 -5.078125 2.089844 -3.375 3.375 -1.929688 C 4.722656 -0.417969 6.363281 0.320312 8.324219 0.320312 C 10.253906 0.320312 11.890625 -0.417969 13.242188 -1.929688 C 13.371094 -2.058594 13.53125 -2.21875 13.660156 -2.410156 L 13.660156 0 Z M 15.910156 0 "/></g></g></g><g fill="#000000" fill-opacity="1"><g transform="translate(920.629228, 263.777911)"><g><path d="M 9.671875 -11.214844 L 9.671875 -14.140625 C 9.222656 -14.332031 8.742188 -14.429688 8.257812 -14.429688 C 6.652344 -14.429688 5.496094 -13.53125 4.757812 -11.792969 L 4.660156 -11.214844 L 4.660156 -14.140625 L 2.410156 -14.140625 L 2.410156 0 L 4.660156 0 L 4.660156 -7.070312 C 4.660156 -8.226562 4.917969 -9.253906 5.464844 -10.1875 C 5.71875 -10.667969 6.074219 -11.085938 6.492188 -11.410156 C 6.910156 -11.730469 7.425781 -11.921875 8.003906 -11.921875 C 8.582031 -11.921875 9.128906 -11.667969 9.671875 -11.214844 Z M 9.671875 -11.214844 "/></g></g></g><g fill="#000000" fill-opacity="1"><g transform="translate(939.040946, 263.777911)"><g><path d="M 13.660156 -7.070312 C 13.660156 -5.6875 13.175781 -4.46875 12.210938 -3.472656 C 11.25 -2.441406 10.058594 -1.929688 8.675781 -1.929688 C 7.261719 -1.929688 6.074219 -2.441406 5.109375 -3.472656 C 4.144531 -4.46875 3.695312 -5.6875 3.695312 -7.070312 C 3.695312 -8.421875 4.144531 -9.640625 5.109375 -10.667969 C 6.074219 -11.699219 7.261719 -12.210938 8.675781 -12.210938 C 10.058594 -12.210938 11.25 -11.699219 12.210938 -10.667969 C 13.175781 -9.640625 13.660156 -8.421875 13.660156 -7.070312 Z M 15.910156 0 L 15.910156 -14.140625 L 13.660156 -14.140625 L 13.660156 -11.699219 C 13.53125 -11.890625 13.371094 -12.050781 13.242188 -12.210938 C 11.890625 -13.691406 10.253906 -14.460938 8.324219 -14.460938 C 6.363281 -14.460938 4.722656 -13.691406 3.375 -12.210938 C 2.089844 -10.734375 1.445312 -9.03125 1.445312 -7.070312 C 1.445312 -5.078125 2.089844 -3.375 3.375 -1.929688 C 4.722656 -0.417969 6.363281 0.320312 8.324219 0.320312 C 10.253906 0.320312 11.890625 -0.417969 13.242188 -1.929688 C 13.371094 -2.058594 13.53125 -2.21875 13.660156 -2.410156 L 13.660156 0 Z M 15.910156 0 "/></g></g></g><g fill="#000000" fill-opacity="1"><g transform="translate(965.772033, 263.777911)"><g><path d="M 13.660156 -7.070312 C 13.660156 -5.6875 13.175781 -4.46875 12.210938 -3.472656 C 11.25 -2.441406 10.058594 -1.929688 8.675781 -1.929688 C 7.261719 -1.929688 6.074219 -2.441406 5.109375 -3.472656 C 4.144531 -4.46875 3.695312 -5.6875 3.695312 -7.070312 C 3.695312 -8.421875 4.144531 -9.640625 5.109375 -10.667969 C 6.074219 -11.699219 7.261719 -12.210938 8.675781 -12.210938 C 10.058594 -12.210938 11.25 -11.699219 12.210938 -10.667969 C 13.175781 -9.640625 13.660156 -8.421875 13.660156 -7.070312 Z M 15.910156 0 L 15.910156 -24.101562 L 13.660156 -24.101562 L 13.660156 -11.699219 C 13.53125 -11.890625 13.371094 -12.050781 13.242188 -12.210938 C 11.890625 -13.691406 10.253906 -14.460938 8.324219 -14.460938 C 6.363281 -14.460938 4.722656 -13.691406 3.375 -12.210938 C 2.089844 -10.734375 1.445312 -9.03125 1.445312 -7.070312 C 1.445312 -5.078125 2.089844 -3.375 3.375 -1.929688 C 4.722656 -0.417969 6.363281 0.320312 8.324219 0.320312 C 10.253906 0.320312 11.890625 -0.417969 13.242188 -1.929688 C 13.371094 -2.058594 13.53125 -2.21875 13.660156 -2.410156 L 13.660156 0 Z M 15.910156 0 "/></g></g></g><g fill="#000000" fill-opacity="1"><g transform="translate(992.503121, 263.777911)"><g><path d="M 4.691406 -19.027344 C 4.402344 -19.28125 4.050781 -19.445312 3.664062 -19.445312 C 3.277344 -19.445312 2.925781 -19.28125 2.667969 -19.027344 C 2.378906 -18.738281 2.25 -18.382812 2.25 -17.996094 C 2.25 -17.613281 2.378906 -17.257812 2.667969 -17 C 2.925781 -16.710938 3.277344 -16.582031 3.664062 -16.582031 C 4.050781 -16.582031 4.402344 -16.710938 4.691406 -17 C 4.949219 -17.257812 5.109375 -17.613281 5.109375 -17.996094 C 5.109375 -18.382812 4.949219 -18.738281 4.691406 -19.027344 Z M 4.820312 0 L 4.820312 -14.140625 L 2.570312 -14.140625 L 2.570312 0 Z M 4.820312 0 "/></g></g></g><g fill="#000000" fill-opacity="1"><g transform="translate(1008.280898, 263.777911)"><g><path d="M 4.433594 -1.992188 C 3.890625 -2.378906 3.472656 -3.019531 3.246094 -3.953125 L 0.867188 -3.953125 C 1.351562 -1.027344 3.214844 0.417969 6.492188 0.417969 C 7.261719 0.417969 7.96875 0.355469 8.644531 0.160156 C 9.320312 -0.03125 9.898438 -0.289062 10.445312 -0.644531 C 11.539062 -1.382812 12.082031 -2.507812 12.082031 -4.015625 C 12.082031 -5.558594 11.375 -6.652344 9.898438 -7.359375 C 9.289062 -7.648438 8.613281 -7.875 7.875 -8.035156 C 7.167969 -8.195312 6.492188 -8.386719 5.882812 -8.582031 C 5.238281 -8.773438 4.722656 -9.03125 4.304688 -9.320312 C 3.890625 -9.609375 3.664062 -10.058594 3.664062 -10.703125 C 3.664062 -11.34375 3.921875 -11.828125 4.433594 -12.117188 C 4.949219 -12.4375 5.558594 -12.597656 6.234375 -12.597656 C 6.941406 -12.597656 7.550781 -12.4375 8.035156 -12.179688 C 8.515625 -11.921875 8.902344 -11.410156 9.128906 -10.636719 L 11.539062 -10.636719 C 11.25 -12.050781 10.636719 -13.046875 9.738281 -13.59375 C 8.804688 -14.171875 7.679688 -14.460938 6.300781 -14.460938 C 4.949219 -14.460938 3.761719 -14.078125 2.765625 -13.371094 C 1.800781 -12.628906 1.285156 -11.570312 1.285156 -10.15625 C 1.285156 -9.480469 1.476562 -8.871094 1.832031 -8.355469 C 2.21875 -7.808594 2.765625 -7.390625 3.472656 -7.070312 C 4.113281 -6.78125 4.789062 -6.554688 5.496094 -6.363281 C 6.203125 -6.203125 6.878906 -6.011719 7.519531 -5.816406 C 8.964844 -5.335938 9.707031 -4.628906 9.707031 -3.726562 C 9.707031 -2.183594 8.675781 -1.445312 6.621094 -1.445312 C 5.753906 -1.445312 5.011719 -1.605469 4.433594 -1.992188 Z M 4.433594 -1.992188 "/></g></g></g><g fill="#000000" fill-opacity="1"><g transform="translate(1029.615636, 263.777911)"><g><path d="M 16.230469 -7.390625 C 16.230469 -9.320312 15.457031 -10.992188 13.980469 -12.4375 C 12.535156 -13.820312 10.796875 -14.527344 8.839844 -14.527344 C 6.78125 -14.527344 5.046875 -13.789062 3.597656 -12.339844 C 2.152344 -10.894531 1.445312 -9.160156 1.445312 -7.132812 C 1.445312 -5.078125 2.152344 -3.34375 3.597656 -1.929688 C 4.273438 -1.253906 5.046875 -0.738281 5.945312 -0.355469 C 6.84375 0.03125 7.90625 0.226562 9.160156 0.226562 C 10.414062 0.226562 11.632812 -0.160156 12.855469 -0.933594 C 14.078125 -1.703125 14.976562 -2.796875 15.585938 -4.144531 L 13.015625 -4.144531 C 12.5 -3.472656 11.890625 -2.957031 11.152344 -2.570312 C 10.414062 -2.183594 9.640625 -2.023438 8.839844 -2.023438 C 7.617188 -2.023438 6.523438 -2.410156 5.558594 -3.214844 C 4.597656 -3.984375 3.984375 -4.980469 3.792969 -6.203125 L 16.230469 -6.203125 Z M 13.851562 -8.132812 L 3.824219 -8.132812 C 3.953125 -8.710938 4.179688 -9.253906 4.5 -9.769531 C 5.527344 -11.441406 6.972656 -12.277344 8.839844 -12.277344 C 10.027344 -12.277344 11.085938 -11.890625 12.019531 -11.121094 C 12.984375 -10.316406 13.5625 -9.320312 13.851562 -8.132812 Z M 13.851562 -8.132812 "/></g></g></g><g clip-path="url(#56042251b1)"><path fill="#000000" d="M 683.785156 66.421875 C 681.816406 31.800781 654.910156 6.878906 620.878906 6.769531 C 604.679688 6.71875 588.480469 6.757812 572.285156 6.757812 C 549.964844 6.757812 527.648438 6.898438 499.085938 6.65625 L 499.085938 100.191406 C 483.414062 100.980469 468.355469 104.558594 453.789062 110.652344 C 378.695312 142.070312 353.371094 227.875 385.199219 294.792969 C 416.582031 360.769531 493.371094 384.386719 555.800781 362.136719 C 572.058594 356.34375 586.402344 347.441406 599.695312 335.476562 C 594.238281 329.324219 589.234375 323.683594 584.238281 318.046875 C 579.347656 312.507812 579.367188 312.539062 573.542969 316.925781 C 540.332031 341.976562 503.855469 346.421875 465.9375 330.796875 C 429.238281 315.679688 408.71875 286.730469 404.261719 247.582031 C 400.3125 212.859375 410.460938 182.339844 436.515625 158.085938 C 454.316406 141.515625 475.507812 132.902344 499.078125 131.066406 L 499.078125 271.875 L 529.382812 271.875 L 529.382812 130.550781 C 559.636719 130.429688 589.890625 130.578125 620.148438 130.558594 C 623.3125 130.558594 626.53125 130.660156 629.636719 130.175781 C 663.484375 124.828125 685.5 96.28125 683.785156 66.421875 Z M 651.945312 76.324219 C 647.703125 91.21875 635.382812 100.101562 618.636719 100.121094 C 588.886719 100.140625 559.140625 100.132812 529.390625 100.070312 L 529.390625 37.589844 C 560.296875 37.527344 588.472656 37.570312 616.644531 37.601562 C 619.984375 37.601562 623.355469 37.691406 626.652344 38.105469 C 644.070312 40.277344 656.746094 59.488281 651.945312 76.324219 Z M 651.945312 76.324219 " fill-opacity="1" fill-rule="nonzero"/></g></svg>