<svg xmlns="http://www.w3.org/2000/svg" xmlns:xlink="http://www.w3.org/1999/xlink" width="500" zoomAndPan="magnify" viewBox="0 0 375 374.999991" height="500" preserveAspectRatio="xMidYMid meet" version="1.0"><defs><g/><clipPath id="a833a4b16e"><path d="M 9 89.53125 L 171 89.53125 L 171 278 L 9 278 Z M 9 89.53125 " clip-rule="nonzero"/></clipPath></defs><g clip-path="url(#a833a4b16e)"><path fill="#000000" d="M 170.136719 120.621094 C 169.125 102.710938 155.269531 89.820312 137.746094 89.761719 C 129.40625 89.734375 121.0625 89.753906 112.722656 89.753906 C 101.230469 89.753906 89.738281 89.828125 75.03125 89.703125 L 75.03125 138.089844 C 66.960938 138.496094 59.207031 140.347656 51.707031 143.5 C 13.039062 159.753906 0 204.140625 16.390625 238.757812 C 32.546875 272.886719 72.089844 285.105469 104.234375 273.59375 C 112.609375 270.597656 119.992188 265.992188 126.839844 259.804688 C 124.027344 256.621094 121.449219 253.703125 118.878906 250.785156 C 116.359375 247.921875 116.371094 247.9375 113.371094 250.207031 C 96.269531 263.164062 77.488281 265.464844 57.964844 257.382812 C 39.066406 249.5625 28.5 234.585938 26.203125 214.332031 C 24.171875 196.371094 29.398438 180.585938 42.8125 168.039062 C 51.980469 159.464844 62.890625 155.011719 75.027344 154.058594 L 75.027344 226.902344 L 90.632812 226.902344 L 90.632812 153.792969 C 106.210938 153.730469 121.789062 153.808594 137.371094 153.796875 C 139 153.796875 140.65625 153.851562 142.257812 153.601562 C 159.683594 150.835938 171.019531 136.066406 170.136719 120.621094 Z M 153.742188 125.742188 C 151.558594 133.449219 145.214844 138.042969 136.589844 138.054688 C 121.273438 138.0625 105.957031 138.058594 90.636719 138.027344 L 90.636719 105.703125 C 106.550781 105.671875 121.058594 105.695312 135.566406 105.710938 C 137.285156 105.710938 139.019531 105.757812 140.71875 105.972656 C 149.6875 107.09375 156.214844 117.03125 153.742188 125.742188 Z M 153.742188 125.742188 " fill-opacity="1" fill-rule="nonzero"/></g><g fill="#000000" fill-opacity="1"><g transform="translate(102.311035, 198.690751)"><g><path d="M 1.40625 -19.25 L 8.421875 -19.25 C 10.378906 -19.25 11.960938 -18.742188 13.171875 -17.734375 C 14.390625 -16.722656 15 -15.25 15 -13.3125 C 15 -11.382812 14.382812 -9.875 13.15625 -8.78125 C 11.925781 -7.6875 10.347656 -7.140625 8.421875 -7.140625 L 5.78125 -7.140625 L 5.78125 0 L 1.40625 0 Z M 5.78125 -10.640625 L 7.015625 -10.640625 C 7.992188 -10.640625 8.796875 -10.835938 9.421875 -11.234375 C 10.054688 -11.628906 10.375 -12.28125 10.375 -13.1875 C 10.375 -14.101562 10.054688 -14.757812 9.421875 -15.15625 C 8.796875 -15.550781 7.992188 -15.75 7.015625 -15.75 L 5.78125 -15.75 Z M 5.78125 -10.640625 "/></g></g></g><g fill="#000000" fill-opacity="1"><g transform="translate(117.842234, 198.690751)"><g><path d="M 11.171875 -19.25 L 18.9375 0 L 14.234375 0 L 12.8125 -3.84375 L 5.484375 -3.84375 L 4.0625 0 L -0.65625 0 L 7.109375 -19.25 Z M 11.3125 -7.703125 L 9.171875 -13.296875 L 9.125 -13.296875 L 6.96875 -7.703125 Z M 11.3125 -7.703125 "/></g></g></g><g fill="#000000" fill-opacity="1"><g transform="translate(136.125202, 198.690751)"><g><path d="M 1.40625 -19.25 L 8.28125 -19.25 C 10.132812 -19.25 11.644531 -18.753906 12.8125 -17.765625 C 13.976562 -16.773438 14.5625 -15.363281 14.5625 -13.53125 C 14.5625 -12.113281 14.207031 -10.925781 13.5 -9.96875 C 12.789062 -9.007812 11.828125 -8.335938 10.609375 -7.953125 L 17.234375 0 L 11.65625 0 L 5.78125 -7.609375 L 5.78125 0 L 1.40625 0 Z M 5.78125 -10.703125 L 6.296875 -10.703125 C 6.703125 -10.703125 7.046875 -10.707031 7.328125 -10.71875 C 7.609375 -10.738281 7.925781 -10.796875 8.28125 -10.890625 C 8.632812 -10.984375 8.921875 -11.113281 9.140625 -11.28125 C 9.359375 -11.457031 9.546875 -11.707031 9.703125 -12.03125 C 9.859375 -12.363281 9.9375 -12.757812 9.9375 -13.21875 C 9.9375 -13.6875 9.859375 -14.082031 9.703125 -14.40625 C 9.546875 -14.738281 9.359375 -14.988281 9.140625 -15.15625 C 8.921875 -15.332031 8.632812 -15.46875 8.28125 -15.5625 C 7.925781 -15.65625 7.609375 -15.707031 7.328125 -15.71875 C 7.046875 -15.738281 6.703125 -15.75 6.296875 -15.75 L 5.78125 -15.75 Z M 5.78125 -10.703125 "/></g></g></g><g fill="#000000" fill-opacity="1"><g transform="translate(152.822407, 198.690751)"><g><path d="M 11.171875 -19.25 L 18.9375 0 L 14.234375 0 L 12.8125 -3.84375 L 5.484375 -3.84375 L 4.0625 0 L -0.65625 0 L 7.109375 -19.25 Z M 11.3125 -7.703125 L 9.171875 -13.296875 L 9.125 -13.296875 L 6.96875 -7.703125 Z M 11.3125 -7.703125 "/></g></g></g><g fill="#000000" fill-opacity="1"><g transform="translate(171.105375, 198.690751)"><g><path d="M 1.40625 -19.25 L 6.96875 -19.25 C 9.644531 -19.25 11.929688 -18.332031 13.828125 -16.5 C 15.722656 -14.675781 16.671875 -12.390625 16.671875 -9.640625 C 16.671875 -6.867188 15.726562 -4.566406 13.84375 -2.734375 C 11.957031 -0.910156 9.664062 0 6.96875 0 L 1.40625 0 Z M 5.78125 -3.921875 L 6.46875 -3.921875 C 8.0625 -3.921875 9.367188 -4.457031 10.390625 -5.53125 C 11.410156 -6.613281 11.925781 -7.972656 11.9375 -9.609375 C 11.9375 -11.242188 11.425781 -12.601562 10.40625 -13.6875 C 9.394531 -14.78125 8.082031 -15.328125 6.46875 -15.328125 L 5.78125 -15.328125 Z M 5.78125 -3.921875 "/></g></g></g><g fill="#000000" fill-opacity="1"><g transform="translate(188.315628, 198.690751)"><g><path d="M 5.78125 -19.25 L 5.78125 0 L 1.40625 0 L 1.40625 -19.25 Z M 5.78125 -19.25 "/></g></g></g><g fill="#000000" fill-opacity="1"><g transform="translate(195.498224, 198.690751)"><g><path d="M 8.484375 -19.59375 C 9.523438 -19.59375 10.546875 -19.441406 11.546875 -19.140625 C 12.546875 -18.835938 13.285156 -18.539062 13.765625 -18.25 L 14.46875 -17.78125 L 12.6875 -14.28125 C 12.550781 -14.375 12.359375 -14.492188 12.109375 -14.640625 C 11.859375 -14.785156 11.390625 -14.984375 10.703125 -15.234375 C 10.023438 -15.484375 9.390625 -15.609375 8.796875 -15.609375 C 8.066406 -15.609375 7.503906 -15.453125 7.109375 -15.140625 C 6.710938 -14.828125 6.515625 -14.40625 6.515625 -13.875 C 6.515625 -13.613281 6.601562 -13.367188 6.78125 -13.140625 C 6.96875 -12.921875 7.285156 -12.679688 7.734375 -12.421875 C 8.191406 -12.160156 8.59375 -11.953125 8.9375 -11.796875 C 9.28125 -11.648438 9.804688 -11.421875 10.515625 -11.109375 C 11.765625 -10.578125 12.828125 -9.851562 13.703125 -8.9375 C 14.578125 -8.03125 15.015625 -7.003906 15.015625 -5.859375 C 15.015625 -4.753906 14.816406 -3.785156 14.421875 -2.953125 C 14.023438 -2.128906 13.476562 -1.484375 12.78125 -1.015625 C 12.09375 -0.554688 11.328125 -0.21875 10.484375 0 C 9.648438 0.226562 8.742188 0.34375 7.765625 0.34375 C 6.929688 0.34375 6.109375 0.257812 5.296875 0.09375 C 4.484375 -0.0703125 3.804688 -0.285156 3.265625 -0.546875 C 2.722656 -0.804688 2.234375 -1.054688 1.796875 -1.296875 C 1.359375 -1.546875 1.039062 -1.757812 0.84375 -1.9375 L 0.53125 -2.1875 L 2.734375 -5.875 C 2.921875 -5.71875 3.175781 -5.519531 3.5 -5.28125 C 3.820312 -5.039062 4.398438 -4.71875 5.234375 -4.3125 C 6.066406 -3.90625 6.800781 -3.703125 7.4375 -3.703125 C 9.289062 -3.703125 10.21875 -4.332031 10.21875 -5.59375 C 10.21875 -5.863281 10.148438 -6.109375 10.015625 -6.328125 C 9.890625 -6.554688 9.65625 -6.78125 9.3125 -7 C 8.976562 -7.226562 8.679688 -7.410156 8.421875 -7.546875 C 8.171875 -7.679688 7.753906 -7.882812 7.171875 -8.15625 C 6.585938 -8.425781 6.15625 -8.628906 5.875 -8.765625 C 4.707031 -9.347656 3.804688 -10.066406 3.171875 -10.921875 C 2.535156 -11.785156 2.21875 -12.71875 2.21875 -13.71875 C 2.21875 -15.445312 2.851562 -16.859375 4.125 -17.953125 C 5.40625 -19.046875 6.859375 -19.59375 8.484375 -19.59375 Z M 8.484375 -19.59375 "/></g></g></g><g fill="#000000" fill-opacity="1"><g transform="translate(211.169351, 198.690751)"><g><path d="M 12.40625 -19.25 L 12.40625 -15.390625 L 5.78125 -15.390625 L 5.78125 -11.578125 L 12.125 -11.578125 L 12.125 -7.71875 L 5.78125 -7.71875 L 5.78125 -3.84375 L 12.40625 -3.84375 L 12.40625 0 L 1.40625 0 L 1.40625 -19.25 Z M 12.40625 -19.25 "/></g></g></g><g fill="#000000" fill-opacity="1"><g transform="translate(224.695015, 198.690751)"><g/></g></g><g fill="#000000" fill-opacity="1"><g transform="translate(231.061402, 198.690751)"><g><path d="M 11.640625 -3.96875 C 12.304688 -3.96875 12.953125 -4.066406 13.578125 -4.265625 C 14.210938 -4.472656 14.679688 -4.671875 14.984375 -4.859375 L 15.421875 -5.15625 L 17.28125 -1.421875 C 17.21875 -1.378906 17.128906 -1.316406 17.015625 -1.234375 C 16.910156 -1.160156 16.660156 -1.015625 16.265625 -0.796875 C 15.867188 -0.585938 15.445312 -0.40625 15 -0.25 C 14.550781 -0.09375 13.957031 0.0390625 13.21875 0.15625 C 12.488281 0.28125 11.738281 0.34375 10.96875 0.34375 C 9.175781 0.34375 7.476562 -0.09375 5.875 -0.96875 C 4.269531 -1.84375 2.976562 -3.050781 2 -4.59375 C 1.019531 -6.132812 0.53125 -7.800781 0.53125 -9.59375 C 0.53125 -10.945312 0.816406 -12.242188 1.390625 -13.484375 C 1.972656 -14.722656 2.738281 -15.785156 3.6875 -16.671875 C 4.644531 -17.566406 5.757812 -18.273438 7.03125 -18.796875 C 8.3125 -19.328125 9.625 -19.59375 10.96875 -19.59375 C 12.207031 -19.59375 13.351562 -19.441406 14.40625 -19.140625 C 15.457031 -18.847656 16.203125 -18.554688 16.640625 -18.265625 L 17.28125 -17.828125 L 15.421875 -14.09375 C 15.304688 -14.1875 15.140625 -14.296875 14.921875 -14.421875 C 14.710938 -14.554688 14.28125 -14.734375 13.625 -14.953125 C 12.96875 -15.171875 12.304688 -15.28125 11.640625 -15.28125 C 10.578125 -15.28125 9.625 -15.109375 8.78125 -14.765625 C 7.945312 -14.421875 7.285156 -13.96875 6.796875 -13.40625 C 6.304688 -12.851562 5.929688 -12.253906 5.671875 -11.609375 C 5.421875 -10.960938 5.296875 -10.304688 5.296875 -9.640625 C 5.296875 -8.171875 5.84375 -6.859375 6.9375 -5.703125 C 8.03125 -4.546875 9.597656 -3.96875 11.640625 -3.96875 Z M 11.640625 -3.96875 "/></g></g></g><g fill="#000000" fill-opacity="1"><g transform="translate(248.621454, 198.690751)"><g><path d="M 0.53125 -9.640625 C 0.53125 -12.421875 1.476562 -14.773438 3.375 -16.703125 C 5.28125 -18.628906 7.566406 -19.59375 10.234375 -19.59375 C 12.929688 -19.59375 15.21875 -18.628906 17.09375 -16.703125 C 18.976562 -14.785156 19.921875 -12.429688 19.921875 -9.640625 C 19.921875 -6.816406 18.992188 -4.445312 17.140625 -2.53125 C 15.296875 -0.613281 12.992188 0.34375 10.234375 0.34375 C 7.421875 0.34375 5.097656 -0.601562 3.265625 -2.5 C 1.441406 -4.40625 0.53125 -6.785156 0.53125 -9.640625 Z M 5.265625 -9.640625 C 5.265625 -8.628906 5.421875 -7.707031 5.734375 -6.875 C 6.046875 -6.039062 6.585938 -5.332031 7.359375 -4.75 C 8.140625 -4.175781 9.097656 -3.890625 10.234375 -3.890625 C 11.867188 -3.890625 13.101562 -4.445312 13.9375 -5.5625 C 14.769531 -6.6875 15.1875 -8.046875 15.1875 -9.640625 C 15.1875 -11.203125 14.757812 -12.546875 13.90625 -13.671875 C 13.0625 -14.804688 11.835938 -15.375 10.234375 -15.375 C 8.648438 -15.375 7.425781 -14.804688 6.5625 -13.671875 C 5.695312 -12.546875 5.265625 -11.203125 5.265625 -9.640625 Z M 5.265625 -9.640625 "/></g></g></g><g fill="#000000" fill-opacity="1"><g transform="translate(269.073206, 198.690751)"><g><path d="M 7.421875 0 L -0.65625 -19.25 L 4.296875 -19.25 L 9.140625 -6.609375 L 14 -19.25 L 18.9375 -19.25 L 10.875 0 Z M 7.421875 0 "/></g></g></g><g fill="#000000" fill-opacity="1"><g transform="translate(287.356174, 198.690751)"><g><path d="M 12.40625 -19.25 L 12.40625 -15.390625 L 5.78125 -15.390625 L 5.78125 -11.578125 L 12.125 -11.578125 L 12.125 -7.71875 L 5.78125 -7.71875 L 5.78125 -3.84375 L 12.40625 -3.84375 L 12.40625 0 L 1.40625 0 L 1.40625 -19.25 Z M 12.40625 -19.25 "/></g></g></g><g fill="#000000" fill-opacity="1"><g transform="translate(103.286086, 222.635135)"><g><path d="M 10.019531 -5.648438 C 10.019531 -6.464844 9.851562 -7.210938 9.554688 -7.910156 C 9.253906 -8.605469 8.839844 -9.203125 8.324219 -9.703125 C 7.792969 -10.203125 7.175781 -10.582031 6.480469 -10.867188 C 5.765625 -11.148438 5 -11.296875 4.203125 -11.296875 L 1.246094 -11.296875 L 1.246094 0 L 4.203125 0 C 5 0 5.765625 -0.132812 6.480469 -0.414062 C 7.175781 -0.699219 7.792969 -1.097656 8.324219 -1.59375 C 8.839844 -2.09375 9.253906 -2.675781 9.554688 -3.371094 C 9.851562 -4.070312 10.019531 -4.816406 10.019531 -5.648438 Z M 8.890625 -5.648438 C 8.890625 -4.351562 8.421875 -3.273438 7.527344 -2.425781 C 6.628906 -1.578125 5.53125 -1.164062 4.238281 -1.164062 L 2.410156 -1.164062 L 2.410156 -10.136719 L 4.238281 -10.136719 C 5.53125 -10.136719 6.628906 -9.703125 7.527344 -8.871094 C 8.421875 -8.007812 8.890625 -6.929688 8.890625 -5.648438 Z M 8.890625 -5.648438 "/></g></g></g><g fill="#000000" fill-opacity="1"><g transform="translate(118.400885, 222.635135)"><g><path d="M 2.425781 -9.835938 C 2.277344 -9.96875 2.09375 -10.050781 1.894531 -10.050781 C 1.695312 -10.050781 1.511719 -9.96875 1.378906 -9.835938 C 1.230469 -9.6875 1.164062 -9.503906 1.164062 -9.304688 C 1.164062 -9.105469 1.230469 -8.921875 1.378906 -8.789062 C 1.511719 -8.640625 1.695312 -8.574219 1.894531 -8.574219 C 2.09375 -8.574219 2.277344 -8.640625 2.425781 -8.789062 C 2.558594 -8.921875 2.640625 -9.105469 2.640625 -9.304688 C 2.640625 -9.503906 2.558594 -9.6875 2.425781 -9.835938 Z M 2.492188 0 L 2.492188 -7.308594 L 1.328125 -7.308594 L 1.328125 0 Z M 2.492188 0 "/></g></g></g><g fill="#000000" fill-opacity="1"><g transform="translate(126.557732, 222.635135)"><g><path d="M 2.292969 -1.03125 C 2.011719 -1.230469 1.792969 -1.5625 1.679688 -2.042969 L 0.449219 -2.042969 C 0.699219 -0.53125 1.660156 0.214844 3.355469 0.214844 C 3.753906 0.214844 4.121094 0.183594 4.46875 0.0820312 C 4.816406 -0.015625 5.117188 -0.148438 5.398438 -0.332031 C 5.964844 -0.714844 6.246094 -1.296875 6.246094 -2.078125 C 6.246094 -2.875 5.882812 -3.4375 5.117188 -3.804688 C 4.800781 -3.953125 4.453125 -4.070312 4.070312 -4.152344 C 3.703125 -4.238281 3.355469 -4.335938 3.039062 -4.4375 C 2.707031 -4.535156 2.441406 -4.667969 2.226562 -4.816406 C 2.011719 -4.96875 1.894531 -5.199219 1.894531 -5.53125 C 1.894531 -5.863281 2.027344 -6.113281 2.292969 -6.265625 C 2.558594 -6.429688 2.875 -6.511719 3.222656 -6.511719 C 3.589844 -6.511719 3.90625 -6.429688 4.152344 -6.296875 C 4.402344 -6.164062 4.601562 -5.898438 4.71875 -5.5 L 5.964844 -5.5 C 5.816406 -6.230469 5.5 -6.746094 5.035156 -7.027344 C 4.550781 -7.328125 3.972656 -7.476562 3.257812 -7.476562 C 2.558594 -7.476562 1.945312 -7.277344 1.429688 -6.910156 C 0.929688 -6.53125 0.664062 -5.980469 0.664062 -5.25 C 0.664062 -4.902344 0.765625 -4.585938 0.945312 -4.320312 C 1.144531 -4.039062 1.429688 -3.820312 1.792969 -3.65625 C 2.125 -3.503906 2.476562 -3.390625 2.839844 -3.289062 C 3.207031 -3.207031 3.554688 -3.105469 3.886719 -3.007812 C 4.636719 -2.757812 5.019531 -2.390625 5.019531 -1.925781 C 5.019531 -1.128906 4.484375 -0.746094 3.421875 -0.746094 C 2.972656 -0.746094 2.59375 -0.832031 2.292969 -1.03125 Z M 2.292969 -1.03125 "/></g></g></g><g fill="#000000" fill-opacity="1"><g transform="translate(137.587437, 222.635135)"><g><path d="M 8.074219 -4.683594 C 7.84375 -5.5 7.394531 -6.164062 6.746094 -6.679688 C 6.0625 -7.195312 5.316406 -7.460938 4.484375 -7.460938 C 3.4375 -7.460938 2.542969 -7.078125 1.828125 -6.332031 C 1.097656 -5.582031 0.746094 -4.683594 0.746094 -3.65625 C 0.746094 -2.609375 1.097656 -1.726562 1.828125 -0.964844 C 2.160156 -0.613281 2.542969 -0.332031 3.007812 -0.132812 C 3.457031 0.0664062 3.921875 0.167969 4.386719 0.167969 C 4.851562 0.167969 5.265625 0.117188 5.632812 -0.015625 C 6.796875 -0.433594 7.59375 -1.210938 8.007812 -2.390625 L 6.695312 -2.390625 C 6.464844 -1.976562 6.164062 -1.644531 5.765625 -1.414062 C 5.367188 -1.164062 4.953125 -1.046875 4.484375 -1.046875 C 3.773438 -1.046875 3.171875 -1.296875 2.675781 -1.8125 C 2.175781 -2.324219 1.945312 -2.941406 1.945312 -3.65625 C 1.945312 -4.335938 2.175781 -4.953125 2.675781 -5.464844 C 2.90625 -5.699219 3.171875 -5.898438 3.488281 -6.03125 C 3.789062 -6.164062 4.171875 -6.246094 4.601562 -6.246094 C 5.035156 -6.246094 5.449219 -6.097656 5.882812 -5.816406 C 6.296875 -5.515625 6.613281 -5.152344 6.8125 -4.683594 Z M 8.074219 -4.683594 "/></g></g></g><g fill="#000000" fill-opacity="1"><g transform="translate(150.593256, 222.635135)"><g><path d="M 7.226562 -3.6875 C 7.226562 -2.957031 6.960938 -2.34375 6.445312 -1.828125 C 5.914062 -1.296875 5.300781 -1.046875 4.570312 -1.046875 C 3.839844 -1.046875 3.207031 -1.296875 2.691406 -1.828125 C 2.160156 -2.34375 1.910156 -2.957031 1.910156 -3.6875 C 1.910156 -4.417969 2.160156 -5.035156 2.691406 -5.566406 C 3.207031 -6.082031 3.839844 -6.347656 4.570312 -6.347656 C 5.300781 -6.347656 5.914062 -6.082031 6.445312 -5.566406 C 6.960938 -5.035156 7.226562 -4.417969 7.226562 -3.6875 Z M 8.390625 -3.6875 C 8.390625 -4.734375 8.007812 -5.632812 7.261719 -6.378906 C 6.511719 -7.128906 5.617188 -7.511719 4.570312 -7.511719 C 3.503906 -7.511719 2.609375 -7.128906 1.859375 -6.378906 C 1.113281 -5.632812 0.746094 -4.734375 0.746094 -3.6875 C 0.746094 -2.625 1.113281 -1.726562 1.859375 -0.996094 C 2.609375 -0.25 3.523438 0.117188 4.570312 0.117188 C 5.597656 0.117188 6.511719 -0.25 7.261719 -0.996094 C 8.007812 -1.726562 8.390625 -2.625 8.390625 -3.6875 Z M 8.390625 -3.6875 "/></g></g></g><g fill="#000000" fill-opacity="1"><g transform="translate(164.08066, 222.635135)"><g><path d="M 3.539062 0.699219 L 6.894531 -7.308594 L 5.632812 -7.308594 L 3.539062 -1.878906 L 1.429688 -7.308594 L 0.167969 -7.308594 Z M 3.539062 0.699219 "/></g></g></g><g fill="#000000" fill-opacity="1"><g transform="translate(175.492293, 222.635135)"><g><path d="M 8.390625 -3.820312 C 8.390625 -4.816406 7.992188 -5.683594 7.226562 -6.429688 C 6.480469 -7.144531 5.582031 -7.511719 4.570312 -7.511719 C 3.503906 -7.511719 2.609375 -7.128906 1.859375 -6.378906 C 1.113281 -5.632812 0.746094 -4.734375 0.746094 -3.6875 C 0.746094 -2.625 1.113281 -1.726562 1.859375 -0.996094 C 2.210938 -0.648438 2.609375 -0.382812 3.074219 -0.183594 C 3.539062 0.015625 4.085938 0.117188 4.734375 0.117188 C 5.382812 0.117188 6.015625 -0.0820312 6.644531 -0.480469 C 7.277344 -0.878906 7.742188 -1.445312 8.058594 -2.144531 L 6.730469 -2.144531 C 6.464844 -1.792969 6.148438 -1.527344 5.765625 -1.328125 C 5.382812 -1.128906 4.984375 -1.046875 4.570312 -1.046875 C 3.9375 -1.046875 3.371094 -1.246094 2.875 -1.660156 C 2.375 -2.058594 2.058594 -2.574219 1.960938 -3.207031 L 8.390625 -3.207031 Z M 7.160156 -4.203125 L 1.976562 -4.203125 C 2.042969 -4.503906 2.160156 -4.785156 2.324219 -5.050781 C 2.859375 -5.914062 3.605469 -6.347656 4.570312 -6.347656 C 5.183594 -6.347656 5.730469 -6.148438 6.214844 -5.75 C 6.710938 -5.332031 7.011719 -4.816406 7.160156 -4.203125 Z M 7.160156 -4.203125 "/></g></g></g><g fill="#000000" fill-opacity="1"><g transform="translate(188.896662, 222.635135)"><g><path d="M 5 -5.796875 L 5 -7.308594 C 4.769531 -7.410156 4.519531 -7.460938 4.269531 -7.460938 C 3.4375 -7.460938 2.839844 -6.996094 2.457031 -6.097656 L 2.410156 -5.796875 L 2.410156 -7.308594 L 1.246094 -7.308594 L 1.246094 0 L 2.410156 0 L 2.410156 -3.65625 C 2.410156 -4.253906 2.542969 -4.785156 2.824219 -5.265625 C 2.957031 -5.515625 3.140625 -5.730469 3.355469 -5.898438 C 3.570312 -6.0625 3.839844 -6.164062 4.136719 -6.164062 C 4.4375 -6.164062 4.71875 -6.03125 5 -5.796875 Z M 5 -5.796875 "/></g></g></g><g fill="#000000" fill-opacity="1"><g transform="translate(198.415211, 222.635135)"><g/></g></g><g fill="#000000" fill-opacity="1"><g transform="translate(207.252901, 222.635135)"><g><path d="M 5.617188 -5.316406 L 9.886719 -11.296875 L 8.40625 -11.296875 L 5.035156 -6.464844 L 1.660156 -11.296875 L 0.167969 -11.296875 L 4.453125 -5.300781 L 4.453125 0 L 5.617188 0 Z M 5.617188 -5.316406 "/></g></g></g><g fill="#000000" fill-opacity="1"><g transform="translate(221.653646, 222.635135)"><g><path d="M 7.226562 -3.6875 C 7.226562 -2.957031 6.960938 -2.34375 6.445312 -1.828125 C 5.914062 -1.296875 5.300781 -1.046875 4.570312 -1.046875 C 3.839844 -1.046875 3.207031 -1.296875 2.691406 -1.828125 C 2.160156 -2.34375 1.910156 -2.957031 1.910156 -3.6875 C 1.910156 -4.417969 2.160156 -5.035156 2.691406 -5.566406 C 3.207031 -6.082031 3.839844 -6.347656 4.570312 -6.347656 C 5.300781 -6.347656 5.914062 -6.082031 6.445312 -5.566406 C 6.960938 -5.035156 7.226562 -4.417969 7.226562 -3.6875 Z M 8.390625 -3.6875 C 8.390625 -4.734375 8.007812 -5.632812 7.261719 -6.378906 C 6.511719 -7.128906 5.617188 -7.511719 4.570312 -7.511719 C 3.503906 -7.511719 2.609375 -7.128906 1.859375 -6.378906 C 1.113281 -5.632812 0.746094 -4.734375 0.746094 -3.6875 C 0.746094 -2.625 1.113281 -1.726562 1.859375 -0.996094 C 2.609375 -0.25 3.523438 0.117188 4.570312 0.117188 C 5.597656 0.117188 6.511719 -0.25 7.261719 -0.996094 C 8.007812 -1.726562 8.390625 -2.625 8.390625 -3.6875 Z M 8.390625 -3.6875 "/></g></g></g><g fill="#000000" fill-opacity="1"><g transform="translate(235.141057, 222.635135)"><g><path d="M 6.296875 -1.246094 L 6.296875 0 L 7.460938 0 L 7.460938 -7.308594 L 6.296875 -7.308594 L 6.296875 -4.253906 C 6.296875 -3.222656 6.097656 -2.441406 5.714844 -1.859375 C 5.351562 -1.296875 4.703125 -1.011719 3.804688 -1.011719 C 3.304688 -1.011719 2.941406 -1.179688 2.726562 -1.511719 C 2.507812 -1.84375 2.410156 -2.257812 2.410156 -2.742188 L 2.410156 -7.308594 L 1.246094 -7.308594 L 1.246094 -2.742188 C 1.246094 -1.894531 1.460938 -1.195312 1.925781 -0.648438 C 2.390625 -0.117188 3.023438 0.148438 3.855469 0.148438 C 4.933594 0.148438 5.75 -0.316406 6.296875 -1.246094 Z M 6.296875 -1.246094 "/></g></g></g><g fill="#000000" fill-opacity="1"><g transform="translate(247.947616, 222.635135)"><g><path d="M 5 -5.796875 L 5 -7.308594 C 4.769531 -7.410156 4.519531 -7.460938 4.269531 -7.460938 C 3.4375 -7.460938 2.839844 -6.996094 2.457031 -6.097656 L 2.410156 -5.796875 L 2.410156 -7.308594 L 1.246094 -7.308594 L 1.246094 0 L 2.410156 0 L 2.410156 -3.65625 C 2.410156 -4.253906 2.542969 -4.785156 2.824219 -5.265625 C 2.957031 -5.515625 3.140625 -5.730469 3.355469 -5.898438 C 3.570312 -6.0625 3.839844 -6.164062 4.136719 -6.164062 C 4.4375 -6.164062 4.71875 -6.03125 5 -5.796875 Z M 5 -5.796875 "/></g></g></g><g fill="#000000" fill-opacity="1"><g transform="translate(257.466165, 222.635135)"><g/></g></g><g fill="#000000" fill-opacity="1"><g transform="translate(266.303855, 222.635135)"><g><path d="M 2.410156 -5.597656 L 2.410156 -10.183594 L 5.035156 -10.183594 C 5.714844 -10.183594 6.265625 -9.96875 6.679688 -9.554688 C 7.078125 -9.121094 7.292969 -8.589844 7.292969 -7.925781 C 7.292969 -7.242188 7.078125 -6.695312 6.644531 -6.246094 C 6.214844 -5.816406 5.683594 -5.597656 5.035156 -5.597656 Z M 8.457031 -7.890625 C 8.457031 -8.890625 8.089844 -9.703125 7.394531 -10.351562 C 6.695312 -10.980469 5.863281 -11.296875 4.867188 -11.296875 L 1.246094 -11.296875 L 1.246094 0 L 2.410156 0 L 2.410156 -4.46875 L 4.867188 -4.46875 C 5.863281 -4.46875 6.710938 -4.785156 7.394531 -5.417969 C 8.089844 -6.082031 8.457031 -6.894531 8.457031 -7.890625 Z M 8.457031 -7.890625 "/></g></g></g><g fill="#000000" fill-opacity="1"><g transform="translate(279.442534, 222.635135)"><g><path d="M 7.0625 -3.65625 C 7.0625 -2.941406 6.8125 -2.308594 6.3125 -1.792969 C 5.816406 -1.261719 5.199219 -0.996094 4.484375 -0.996094 C 3.753906 -0.996094 3.140625 -1.261719 2.640625 -1.792969 C 2.144531 -2.308594 1.910156 -2.941406 1.910156 -3.65625 C 1.910156 -4.351562 2.144531 -4.984375 2.640625 -5.515625 C 3.140625 -6.046875 3.753906 -6.3125 4.484375 -6.3125 C 5.199219 -6.3125 5.816406 -6.046875 6.3125 -5.515625 C 6.8125 -4.984375 7.0625 -4.351562 7.0625 -3.65625 Z M 8.222656 0 L 8.222656 -7.308594 L 7.0625 -7.308594 L 7.0625 -6.046875 C 6.996094 -6.148438 6.910156 -6.230469 6.84375 -6.3125 C 6.148438 -7.078125 5.300781 -7.476562 4.304688 -7.476562 C 3.289062 -7.476562 2.441406 -7.078125 1.746094 -6.3125 C 1.078125 -5.550781 0.746094 -4.667969 0.746094 -3.65625 C 0.746094 -2.625 1.078125 -1.746094 1.746094 -0.996094 C 2.441406 -0.214844 3.289062 0.167969 4.304688 0.167969 C 5.300781 0.167969 6.148438 -0.214844 6.84375 -0.996094 C 6.910156 -1.0625 6.996094 -1.144531 7.0625 -1.246094 L 7.0625 0 Z M 8.222656 0 "/></g></g></g><g fill="#000000" fill-opacity="1"><g transform="translate(293.262058, 222.635135)"><g><path d="M 5 -5.796875 L 5 -7.308594 C 4.769531 -7.410156 4.519531 -7.460938 4.269531 -7.460938 C 3.4375 -7.460938 2.839844 -6.996094 2.457031 -6.097656 L 2.410156 -5.796875 L 2.410156 -7.308594 L 1.246094 -7.308594 L 1.246094 0 L 2.410156 0 L 2.410156 -3.65625 C 2.410156 -4.253906 2.542969 -4.785156 2.824219 -5.265625 C 2.957031 -5.515625 3.140625 -5.730469 3.355469 -5.898438 C 3.570312 -6.0625 3.839844 -6.164062 4.136719 -6.164062 C 4.4375 -6.164062 4.71875 -6.03125 5 -5.796875 Z M 5 -5.796875 "/></g></g></g><g fill="#000000" fill-opacity="1"><g transform="translate(302.780607, 222.635135)"><g><path d="M 7.0625 -3.65625 C 7.0625 -2.941406 6.8125 -2.308594 6.3125 -1.792969 C 5.816406 -1.261719 5.199219 -0.996094 4.484375 -0.996094 C 3.753906 -0.996094 3.140625 -1.261719 2.640625 -1.792969 C 2.144531 -2.308594 1.910156 -2.941406 1.910156 -3.65625 C 1.910156 -4.351562 2.144531 -4.984375 2.640625 -5.515625 C 3.140625 -6.046875 3.753906 -6.3125 4.484375 -6.3125 C 5.199219 -6.3125 5.816406 -6.046875 6.3125 -5.515625 C 6.8125 -4.984375 7.0625 -4.351562 7.0625 -3.65625 Z M 8.222656 0 L 8.222656 -7.308594 L 7.0625 -7.308594 L 7.0625 -6.046875 C 6.996094 -6.148438 6.910156 -6.230469 6.84375 -6.3125 C 6.148438 -7.078125 5.300781 -7.476562 4.304688 -7.476562 C 3.289062 -7.476562 2.441406 -7.078125 1.746094 -6.3125 C 1.078125 -5.550781 0.746094 -4.667969 0.746094 -3.65625 C 0.746094 -2.625 1.078125 -1.746094 1.746094 -0.996094 C 2.441406 -0.214844 3.289062 0.167969 4.304688 0.167969 C 5.300781 0.167969 6.148438 -0.214844 6.84375 -0.996094 C 6.910156 -1.0625 6.996094 -1.144531 7.0625 -1.246094 L 7.0625 0 Z M 8.222656 0 "/></g></g></g><g fill="#000000" fill-opacity="1"><g transform="translate(316.60013, 222.635135)"><g><path d="M 7.0625 -3.65625 C 7.0625 -2.941406 6.8125 -2.308594 6.3125 -1.792969 C 5.816406 -1.261719 5.199219 -0.996094 4.484375 -0.996094 C 3.753906 -0.996094 3.140625 -1.261719 2.640625 -1.792969 C 2.144531 -2.308594 1.910156 -2.941406 1.910156 -3.65625 C 1.910156 -4.351562 2.144531 -4.984375 2.640625 -5.515625 C 3.140625 -6.046875 3.753906 -6.3125 4.484375 -6.3125 C 5.199219 -6.3125 5.816406 -6.046875 6.3125 -5.515625 C 6.8125 -4.984375 7.0625 -4.351562 7.0625 -3.65625 Z M 8.222656 0 L 8.222656 -12.460938 L 7.0625 -12.460938 L 7.0625 -6.046875 C 6.996094 -6.148438 6.910156 -6.230469 6.84375 -6.3125 C 6.148438 -7.078125 5.300781 -7.476562 4.304688 -7.476562 C 3.289062 -7.476562 2.441406 -7.078125 1.746094 -6.3125 C 1.078125 -5.550781 0.746094 -4.667969 0.746094 -3.65625 C 0.746094 -2.625 1.078125 -1.746094 1.746094 -0.996094 C 2.441406 -0.214844 3.289062 0.167969 4.304688 0.167969 C 5.300781 0.167969 6.148438 -0.214844 6.84375 -0.996094 C 6.910156 -1.0625 6.996094 -1.144531 7.0625 -1.246094 L 7.0625 0 Z M 8.222656 0 "/></g></g></g><g fill="#000000" fill-opacity="1"><g transform="translate(330.419654, 222.635135)"><g><path d="M 2.425781 -9.835938 C 2.277344 -9.96875 2.09375 -10.050781 1.894531 -10.050781 C 1.695312 -10.050781 1.511719 -9.96875 1.378906 -9.835938 C 1.230469 -9.6875 1.164062 -9.503906 1.164062 -9.304688 C 1.164062 -9.105469 1.230469 -8.921875 1.378906 -8.789062 C 1.511719 -8.640625 1.695312 -8.574219 1.894531 -8.574219 C 2.09375 -8.574219 2.277344 -8.640625 2.425781 -8.789062 C 2.558594 -8.921875 2.640625 -9.105469 2.640625 -9.304688 C 2.640625 -9.503906 2.558594 -9.6875 2.425781 -9.835938 Z M 2.492188 0 L 2.492188 -7.308594 L 1.328125 -7.308594 L 1.328125 0 Z M 2.492188 0 "/></g></g></g><g fill="#000000" fill-opacity="1"><g transform="translate(338.576499, 222.635135)"><g><path d="M 2.292969 -1.03125 C 2.011719 -1.230469 1.792969 -1.5625 1.679688 -2.042969 L 0.449219 -2.042969 C 0.699219 -0.53125 1.660156 0.214844 3.355469 0.214844 C 3.753906 0.214844 4.121094 0.183594 4.46875 0.0820312 C 4.816406 -0.015625 5.117188 -0.148438 5.398438 -0.332031 C 5.964844 -0.714844 6.246094 -1.296875 6.246094 -2.078125 C 6.246094 -2.875 5.882812 -3.4375 5.117188 -3.804688 C 4.800781 -3.953125 4.453125 -4.070312 4.070312 -4.152344 C 3.703125 -4.238281 3.355469 -4.335938 3.039062 -4.4375 C 2.707031 -4.535156 2.441406 -4.667969 2.226562 -4.816406 C 2.011719 -4.96875 1.894531 -5.199219 1.894531 -5.53125 C 1.894531 -5.863281 2.027344 -6.113281 2.292969 -6.265625 C 2.558594 -6.429688 2.875 -6.511719 3.222656 -6.511719 C 3.589844 -6.511719 3.90625 -6.429688 4.152344 -6.296875 C 4.402344 -6.164062 4.601562 -5.898438 4.71875 -5.5 L 5.964844 -5.5 C 5.816406 -6.230469 5.5 -6.746094 5.035156 -7.027344 C 4.550781 -7.328125 3.972656 -7.476562 3.257812 -7.476562 C 2.558594 -7.476562 1.945312 -7.277344 1.429688 -6.910156 C 0.929688 -6.53125 0.664062 -5.980469 0.664062 -5.25 C 0.664062 -4.902344 0.765625 -4.585938 0.945312 -4.320312 C 1.144531 -4.039062 1.429688 -3.820312 1.792969 -3.65625 C 2.125 -3.503906 2.476562 -3.390625 2.839844 -3.289062 C 3.207031 -3.207031 3.554688 -3.105469 3.886719 -3.007812 C 4.636719 -2.757812 5.019531 -2.390625 5.019531 -1.925781 C 5.019531 -1.128906 4.484375 -0.746094 3.421875 -0.746094 C 2.972656 -0.746094 2.59375 -0.832031 2.292969 -1.03125 Z M 2.292969 -1.03125 "/></g></g></g><g fill="#000000" fill-opacity="1"><g transform="translate(349.606201, 222.635135)"><g><path d="M 8.390625 -3.820312 C 8.390625 -4.816406 7.992188 -5.683594 7.226562 -6.429688 C 6.480469 -7.144531 5.582031 -7.511719 4.570312 -7.511719 C 3.503906 -7.511719 2.609375 -7.128906 1.859375 -6.378906 C 1.113281 -5.632812 0.746094 -4.734375 0.746094 -3.6875 C 0.746094 -2.625 1.113281 -1.726562 1.859375 -0.996094 C 2.210938 -0.648438 2.609375 -0.382812 3.074219 -0.183594 C 3.539062 0.015625 4.085938 0.117188 4.734375 0.117188 C 5.382812 0.117188 6.015625 -0.0820312 6.644531 -0.480469 C 7.277344 -0.878906 7.742188 -1.445312 8.058594 -2.144531 L 6.730469 -2.144531 C 6.464844 -1.792969 6.148438 -1.527344 5.765625 -1.328125 C 5.382812 -1.128906 4.984375 -1.046875 4.570312 -1.046875 C 3.9375 -1.046875 3.371094 -1.246094 2.875 -1.660156 C 2.375 -2.058594 2.058594 -2.574219 1.960938 -3.207031 L 8.390625 -3.207031 Z M 7.160156 -4.203125 L 1.976562 -4.203125 C 2.042969 -4.503906 2.160156 -4.785156 2.324219 -5.050781 C 2.859375 -5.914062 3.605469 -6.347656 4.570312 -6.347656 C 5.183594 -6.347656 5.730469 -6.148438 6.214844 -5.75 C 6.710938 -5.332031 7.011719 -4.816406 7.160156 -4.203125 Z M 7.160156 -4.203125 "/></g></g></g></svg>